<?xml version="1.0" standalone="no"?>
<!DOCTYPE svg PUBLIC "-//W3C//DTD SVG 1.1//EN" "http://www.w3.org/Graphics/SVG/1.1/DTD/svg11.dtd" >
<svg xmlns="http://www.w3.org/2000/svg" xmlns:xlink="http://www.w3.org/1999/xlink" version="1.1">
<metadata>
Created by FontForge 20170731 at Fri Jan  1 02:30:17 1904
 By Aleksey,,,
Copyright 1985-1994 Adobe Systems Inc.
</metadata>
<defs>
<font id="TradeGothic-BoldCondTwentyObl" horiz-adv-x="909" >
  <font-face 
    font-family="TradeGothic CondEighteen"
    font-weight="700"
    font-style="italic"
    font-stretch="condensed"
    units-per-em="2048"
    panose-1="2 11 8 0 0 0 0 0 0 0"
    ascent="1638"
    descent="-410"
    x-height="1101"
    cap-height="1478"
    bbox="-345 -482 2185 1973"
    underline-thickness="102"
    underline-position="-357"
    slope="-100"
    unicode-range="U+0020-F002"
  />
<missing-glyph horiz-adv-x="748" 
d="M68 0v1365h544v-1365h-544zM136 68h408v1229h-408v-1229z" />
    <glyph glyph-name=".notdef" horiz-adv-x="748" 
d="M68 0v1365h544v-1365h-544zM136 68h408v1229h-408v-1229z" />
    <glyph glyph-name="glyph1" horiz-adv-x="0" 
 />
    <glyph glyph-name="nonmarkingreturn" horiz-adv-x="682" 
 />
    <glyph glyph-name="equal" unicode=" " horiz-adv-x="454" 
 />
    <glyph glyph-name="greater" unicode="!" horiz-adv-x="569" 
d="M297 434h168l276 1044h-258zM405 0l54 242h-242l-53 -242h241z" />
    <glyph glyph-name="question" unicode="&#x22;" horiz-adv-x="682" 
d="M285 917h192l124 561h-192zM610 917h193l124 561h-193z" />
    <glyph glyph-name="at" unicode="#" 
d="M967 598h-126l95 282h147l36 160h-131l148 438h-182l-149 -438h-165l148 438h-182l-149 -438h-155l-36 -160h136l-94 -282h-155l-36 -160h136l-149 -438h187l146 438h166l-149 -438h185l146 438h147zM752 880l-96 -282h-163l95 282h164z" />
    <glyph glyph-name="A" unicode="$" 
d="M720 1478q-156 -23 -257 -127q-105 -104 -138 -252q-30 -147 44 -247q69 -103 174 -174l-106 -481q-54 18 -84 65q-33 45 -42 98v0l-198 -129q37 -88 109 -151q70 -66 171 -80l-53 -236h123l53 236q168 20 276 131q108 108 143 266q36 170 -37 274q-73 105 -193 183
l94 423q46 -10 68 -43q23 -35 34 -75v0l185 133q-73 149 -243 186l40 180h-123zM597 921v0q-36 43 -54 90q-18 49 -3 115q12 53 49 94q38 41 87 57zM559 197l90 403v0q43 -43 64 -90q20 -47 3 -123q-29 -141 -157 -190v0z" />
    <glyph glyph-name="B" unicode="%" horiz-adv-x="1592" 
d="M355 1142q-29 -141 48 -235q73 -98 214 -101q145 3 261 101q115 94 149 235q30 145 -44 240q-73 94 -218 96q-141 -2 -256 -96q-120 -95 -154 -240v0zM519 1142q16 72 78 123q60 47 132 49q71 -2 112 -49q36 -51 22 -123q-18 -71 -76 -121q-63 -51 -134 -51
q-72 0 -110 51q-40 50 -24 121v0zM1057 336q16 71 78 123q60 47 132 49q71 -2 112 -49q36 -52 22 -123q-18 -72 -76 -121q-63 -51 -134 -51q-72 0 -110 51q-40 49 -24 121v0zM893 336q-29 -142 48 -236q73 -98 213 -100q146 2 262 100q115 94 148 236q31 145 -43 239
q-73 94 -218 96q-142 -2 -257 -96q-119 -94 -153 -239v0zM1472 1498l-1174 -1517h154l1173 1517h-153z" />
    <glyph glyph-name="C" unicode="&#x26;" horiz-adv-x="1138" 
d="M660 1206q32 143 132 145q91 2 57 -160q-19 -75 -68 -143q-54 -68 -114 -127v0q-11 66 -14 141q-9 72 7 144v0zM986 716v0q-66 -139 -151 -274v0q-76 139 -118 301q113 94 215 205q106 106 138 243q60 299 -233 307q-160 -2 -261 -98q-103 -96 -137 -250q-21 -96 -7 -206
q13 -109 33 -201q-96 -84 -175 -190q-83 -109 -112 -228q-34 -155 44 -247q73 -95 234 -97q180 0 316 111v0q96 -107 261 -111l50 224q-77 14 -126 69q130 189 225 387zM419 358q22 101 104 182v0q48 -159 137 -296q-61 -45 -126 -43q-66 0 -96 47q-33 45 -19 110v0z" />
    <glyph glyph-name="D" unicode="'" horiz-adv-x="454" 
d="M334 917h192l125 561h-193z" />
    <glyph glyph-name="E" unicode="(" horiz-adv-x="569" 
d="M639 1498q-319 -368 -427 -837q-100 -469 56 -836h197q-158 367 -57 836q106 469 427 837h-196z" />
    <glyph glyph-name="F" unicode=")" horiz-adv-x="569" 
d="M397 1498q156 -368 56 -837q-107 -469 -426 -836h196q319 367 427 836q100 469 -56 837h-197z" />
    <glyph glyph-name="G" unicode="*" 
d="M1054 1320v0q-142 -75 -291 -137v0q48 152 115 295h-193q3 -143 -16 -295v0q-121 62 -229 137v0l-102 -182q153 -10 301 -35q-132 -118 -275 -219l136 -112v0q90 147 189 286v0q38 -139 61 -286v0l187 112q-99 101 -179 219q159 25 317 35z" />
    <glyph glyph-name="H" unicode="+" horiz-adv-x="1228" 
d="M651 618h-418l-44 -200h417l-92 -418h200l93 418h417l45 200h-418l93 418h-201z" />
    <glyph glyph-name="I" unicode="," horiz-adv-x="454" 
d="M401 242h-241l-54 -242h93l-157 -253h109l197 253z" />
    <glyph glyph-name="J" unicode="-" horiz-adv-x="682" 
d="M693 456l41 189h-501l-42 -189h502z" />
    <glyph glyph-name="K" unicode="." horiz-adv-x="454" 
d="M348 0l53 242h-241l-54 -242h242z" />
    <glyph glyph-name="L" unicode="/" horiz-adv-x="569" 
d="M-47 -19h200l791 1517h-201z" />
    <glyph glyph-name="M" unicode="0" 
d="M644 321q-33 -143 -150 -141q-119 -2 -87 141l185 835q31 142 150 142q116 0 87 -142zM179 385q-96 -407 271 -404q364 -3 450 404l157 708q94 407 -271 405q-366 2 -450 -405z" />
    <glyph glyph-name="N" unicode="1" 
d="M362 0h230l331 1498h-129q-152 -106 -343 -190l-30 -137h200z" />
    <glyph glyph-name="O" unicode="2" 
d="M796 0l46 209h-448q380 403 519 604q74 106 111 190q35 84 54 168q27 133 -41 229q-73 96 -230 98q-181 -2 -301 -110q-125 -109 -161 -274l-16 -70h242l22 100q15 70 56 113q39 41 101 41q113 2 77 -168q-66 -283 -693 -931l-44 -199h706z" />
    <glyph glyph-name="P" unicode="3" 
d="M189 428l-20 -88q-76 -364 258 -359q370 -3 465 432q32 148 16 232q-19 80 -117 135q108 53 161 135q46 78 74 205q34 153 -24 264q-57 112 -222 114q-166 -2 -275 -96q-113 -94 -147 -248l-15 -69h229l13 61q20 88 60 121q35 31 89 31q57 0 71 -45q10 -47 -13 -152
q-28 -129 -86 -178t-170 -47l-45 -201q117 0 159 -43q38 -47 12 -165l-25 -113q-41 -176 -159 -174q-114 2 -82 148l22 100h-229z" />
    <glyph glyph-name="Q" unicode="4" 
d="M348 544l375 578h4l-127 -578h-252zM475 0h233l79 356h135l42 188h-135l206 934h-245l-637 -934l-41 -188h442z" />
    <glyph glyph-name="R" unicode="5" 
d="M197 428l-25 -113q-38 -182 49 -260q86 -74 241 -74q350 -3 446 457l45 205q89 385 -184 389q-58 0 -105 -13q-49 -16 -109 -73l-3 4l85 319h399l55 209h-616q-107 -471 -187 -760h197q26 48 66 80q38 33 96 33q100 2 76 -135l-74 -336q-22 -96 -62 -139
q-42 -41 -103 -41q-110 2 -84 129l26 119h-229z" />
    <glyph glyph-name="S" unicode="6" 
d="M1023 1081l20 90q32 145 -35 237q-68 90 -222 90q-366 2 -450 -405l-157 -708q-96 -407 271 -404q363 -5 460 449l39 176q34 162 -28 233q-61 70 -175 70q-74 0 -122 -25q-51 -24 -109 -73v0l77 345q31 142 150 142q108 0 77 -142l-17 -75h221zM478 641q31 20 71 45
q39 20 74 22q103 0 76 -141l-55 -246q-33 -143 -150 -141q-119 -2 -87 141z" />
    <glyph glyph-name="T" unicode="7" 
d="M819 1269l-577 -1269h239l596 1335l32 143h-667l-46 -209h423z" />
    <glyph glyph-name="U" unicode="8" 
d="M185 409q-94 -424 265 -428q359 4 455 428q30 135 22 230q-10 92 -91 149q78 51 130 129q48 78 68 166q87 419 -248 415q-333 4 -432 -415q-19 -88 -2 -166q14 -78 70 -129q-103 -57 -156 -149q-53 -95 -81 -230v0zM494 180q-71 0 -87 68q-15 63 11 178q25 116 69 182
q44 63 116 63q74 0 88 -63q14 -66 -11 -182q-26 -115 -68 -178q-44 -68 -118 -68v0zM652 892q-57 0 -73 50q-16 47 7 153q24 107 61 156q37 47 95 47q59 0 75 -47q14 -49 -10 -156q-23 -106 -58 -153q-38 -50 -97 -50v0z" />
    <glyph glyph-name="V" unicode="9" 
d="M213 397l-20 -90q-32 -143 38 -235q67 -91 219 -91q364 -3 450 404l157 708q94 407 -271 405q-365 4 -460 -450l-39 -176q-34 -162 29 -231q62 -72 174 -72q76 0 124 25q49 24 107 73v0l-77 -346q-33 -143 -150 -141q-111 -2 -77 141l17 76h-221zM758 837
q-27 -20 -66 -41q-45 -26 -79 -26q-105 -2 -76 141l55 245q31 142 150 142q116 0 87 -142z" />
    <glyph glyph-name="W" unicode=":" horiz-adv-x="454" 
d="M348 0l53 242h-241l-54 -242h242zM474 569l53 242h-241l-54 -242h242z" />
    <glyph glyph-name="X" unicode=";" horiz-adv-x="454" 
d="M401 242h-241l-54 -242h93l-157 -253h109l197 253zM474 569l53 242h-241l-54 -242h242z" />
    <glyph glyph-name="Y" unicode="&#x3c;" horiz-adv-x="1228" 
d="M1132 0l47 213l-680 305l815 305l47 213v0l-1131 -432l-38 -172l940 -432v0z" />
    <glyph glyph-name="Z" unicode="=" horiz-adv-x="1228" 
d="M1316 831h-1036l-44 -201h1035zM1222 405h-1036l-44 -200h1035z" />
    <glyph glyph-name="bracketleft" unicode="&#x3e;" horiz-adv-x="1228" 
d="M96 0v0l1132 432l38 172l-941 432v0l-47 -213l680 -305l-815 -305z" />
    <glyph glyph-name="backslash" unicode="?" horiz-adv-x="796" 
d="M573 434l24 110q30 136 90 219q57 82 118 144q32 35 64 67q29 31 56 68q50 72 77 182q25 123 -44 199q-70 73 -190 75q-283 0 -431 -270l181 -74v0q27 58 72 107q43 47 107 49q41 0 58 -27q17 -26 8 -65q-12 -55 -59 -119q-47 -65 -105 -139q-57 -74 -107 -160
q-54 -88 -77 -194l-39 -172h197zM495 0l54 242h-242l-53 -242h241z" />
    <glyph glyph-name="bracketright" unicode="@" horiz-adv-x="1638" 
d="M861 477q-72 0 -103 53q-34 51 -16 129q24 109 117 205q45 47 98 73q51 27 106 27q71 -2 104 -49q29 -51 14 -129q-26 -111 -113 -205q-43 -45 -96 -73q-52 -31 -111 -31v0zM1295 1015v0q-56 133 -210 133q-201 -4 -352 -159q-156 -156 -202 -357q-29 -141 42 -237
q67 -100 200 -102q63 0 131 35q64 30 115 77l4 -2q-8 -55 20 -82q25 -28 72 -28q57 0 151 35q91 32 188 102q100 71 182 182q78 111 114 266q57 285 -113 450q-168 168 -454 170q-326 -4 -589 -213q-270 -208 -349 -546q-72 -346 108 -551q171 -205 504 -207q396 4 691 328
h-170q-209 -168 -473 -170q-268 2 -397 168q-136 162 -79 428q61 266 258 434q194 168 459 170q235 0 361 -127q127 -129 74 -377q-39 -166 -135 -266q-95 -106 -186 -108q-34 2 -20 55q9 41 32 80l245 526h-165z" />
    <glyph glyph-name="asciicircum" unicode="A" 
d="M714 1183h4l-40 -634h-204zM388 328h278l-27 -328h245l55 1478h-315l-599 -1478h245z" />
    <glyph glyph-name="underscore" unicode="B" horiz-adv-x="1023" 
d="M523 663h82q213 0 159 -227q-46 -227 -235 -227h-106zM658 1269h96q165 -2 119 -209q-22 -92 -78 -139q-57 -49 -133 -49h-92zM123 0h401q217 2 337 125q114 119 155 303q32 143 -3 227q-35 82 -124 123q101 41 163 127q60 86 81 182q90 387 -306 391h-377z" />
    <glyph glyph-name="grave" unicode="C" horiz-adv-x="1023" 
d="M1106 985l24 108q38 172 -28 287q-69 116 -259 118q-199 -2 -316 -108q-121 -109 -156 -270l-169 -762q-35 -159 37 -266q70 -109 268 -111q191 2 310 111q115 107 151 266l37 170h-254l-39 -178q-16 -72 -49 -108q-37 -41 -107 -41q-139 0 -99 163l166 750
q32 163 171 163q52 0 77 -41q26 -43 7 -137l-26 -114h254z" />
    <glyph glyph-name="a" unicode="D" horiz-adv-x="1023" 
d="M658 1269h88q100 0 133 -43q29 -47 3 -164l-143 -646q-26 -115 -74 -160q-54 -47 -154 -47h-88zM123 0h376q399 -1 500 446l130 586q97 448 -302 446h-377z" />
    <glyph glyph-name="b" unicode="E" 
d="M831 0l49 221h-454l96 434h327l49 221h-327l84 381h426l49 221h-680l-327 -1478h708z" />
    <glyph glyph-name="c" unicode="F" 
d="M377 0l145 655h339l49 221h-339l84 381h454l49 221h-708l-327 -1478h254z" />
    <glyph glyph-name="d" unicode="G" horiz-adv-x="1023" 
d="M594 549h162l-32 -144q-24 -108 -65 -157q-44 -47 -119 -47q-64 0 -81 43q-19 41 -4 112l169 760q20 94 63 129q38 32 85 32q76 2 100 -55q19 -61 -16 -223h241l21 94q38 172 -31 287q-70 116 -260 118q-187 -2 -302 -108q-119 -109 -154 -270l-169 -762
q-39 -176 35 -276q70 -99 221 -101q86 0 153 31q64 31 132 99v0l23 -111h122l166 749h-415z" />
    <glyph glyph-name="e" unicode="H" horiz-adv-x="1023" 
d="M377 0l145 655h270l-145 -655h254l327 1478h-254l-133 -602h-270l133 602h-254l-327 -1478h254z" />
    <glyph glyph-name="f" unicode="I" horiz-adv-x="569" 
d="M411 0l328 1478h-254l-327 -1478h253z" />
    <glyph glyph-name="g" unicode="J" horiz-adv-x="569" 
d="M2 -19h84q209 2 304 87q92 83 121 227l262 1183h-253l-256 -1155q-14 -61 -49 -92q-38 -30 -111 -30h-53z" />
    <glyph glyph-name="h" unicode="K" 
d="M364 0l116 524l127 164h4l54 -688h258l-104 927l397 551h-254l-387 -547h-4l121 547h-254l-327 -1478h253z" />
    <glyph glyph-name="i" unicode="L" horiz-adv-x="796" 
d="M763 0l49 221h-399l279 1257h-254l-327 -1478h652z" />
    <glyph glyph-name="j" unicode="M" horiz-adv-x="1251" 
d="M1134 1478l-372 -864h-4l11 864h-333l-328 -1478h222l255 1154h4l-26 -1154h123l485 1154h4l-256 -1154h221l327 1478h-333z" />
    <glyph glyph-name="k" unicode="N" horiz-adv-x="1023" 
d="M352 0l204 923h5l119 -923h221l327 1478h-229l-188 -846h-4l-122 846h-235l-327 -1478h229z" />
    <glyph glyph-name="l" unicode="O" horiz-adv-x="1023" 
d="M202 358q-35 -159 37 -266q70 -109 268 -111q201 2 320 111q118 107 153 266l168 762q36 161 -34 270q-70 106 -271 108q-199 -2 -316 -108q-121 -109 -156 -270zM623 1114q32 163 171 163q76 0 98 -39q19 -43 1 -124l-166 -750q-18 -82 -55 -122q-40 -41 -116 -41
q-139 0 -99 163z" />
    <glyph glyph-name="m" unicode="P" horiz-adv-x="1023" 
d="M658 1269h98q125 0 161 -47q34 -49 5 -180q-28 -129 -84 -178q-58 -51 -183 -49h-98zM377 0l134 606h110q459 -10 555 436q101 444 -362 436h-364l-327 -1478h254z" />
    <glyph glyph-name="n" unicode="Q" horiz-adv-x="1023" 
d="M1001 111q-18 2 -42 12q-29 10 -64 45q61 84 85 190l168 762q36 161 -34 270q-70 106 -271 108q-199 -2 -316 -108q-121 -109 -156 -270l-169 -762q-35 -159 37 -266q70 -109 268 -111q123 0 217 46q47 -85 104 -112q54 -25 124 -25zM597 303q11 -8 26 -23q12 -18 24 -57
q-32 -22 -91 -22q-139 0 -99 163l166 750q32 163 171 163q76 0 98 -39q19 -43 1 -124l-149 -676v0q-28 41 -52 61q-26 21 -45 29z" />
    <glyph glyph-name="o" unicode="R" horiz-adv-x="1023" 
d="M658 1269h90q102 0 137 -47q30 -49 1 -180q-29 -129 -81 -178q-56 -51 -158 -49h-90zM511 606q35 0 72 4q35 0 60 2l45 -612h258l-67 669q74 29 148 115q72 84 112 258q97 444 -333 436h-356l-327 -1478h254z" />
    <glyph glyph-name="p" unicode="S" 
d="M1079 1140q19 160 -49 258q-66 98 -223 100q-390 -4 -475 -368q-32 -156 25 -258q54 -104 135 -186q84 -80 144 -160q58 -82 36 -190q-14 -64 -61 -99q-49 -36 -116 -36q-129 0 -102 223v0l-250 -35q-27 -170 45 -287q70 -119 246 -121q180 2 312 99q130 96 173 278
q31 150 -22 256q-54 107 -138 188q-80 84 -140 162q-63 78 -45 168q32 143 159 145q45 0 81 -32q31 -37 18 -131z" />
    <glyph glyph-name="q" unicode="T" horiz-adv-x="796" 
d="M270 0h254l278 1257h246l49 221h-745l-49 -221h245z" />
    <glyph glyph-name="r" unicode="U" horiz-adv-x="1023" 
d="M205 373q-80 -388 302 -392q384 4 476 392l245 1105h-254l-247 -1116q-36 -161 -171 -161q-137 0 -99 161l247 1116h-254z" />
    <glyph glyph-name="s" unicode="V" 
d="M557 452h-4l42 1026h-249l-18 -1478h253l637 1478h-250z" />
    <glyph glyph-name="t" unicode="W" horiz-adv-x="1365" 
d="M516 536h-4l53 942h-238l-47 -1478h213l388 976h4l-31 -976h212l588 1478h-238l-350 -942h-4l37 942h-209z" />
    <glyph glyph-name="u" unicode="X" 
d="M29 0h249l296 538h4l52 -538h250l-115 774l412 704h-250l-245 -469h-4l-52 469h-250l115 -704z" />
    <glyph glyph-name="v" unicode="Y" 
d="M717 614l499 864h-258l-295 -563h-4l-53 563h-258l115 -864l-135 -614h253z" />
    <glyph glyph-name="w" unicode="Z" 
d="M841 1257l-697 -1015l-54 -242h729l49 221h-467l691 1015l54 242h-671l-49 -221h415z" />
    <glyph glyph-name="x" unicode="[" horiz-adv-x="569" 
d="M839 1478h-438l-362 -1633h438l22 99h-241l318 1436h241z" />
    <glyph glyph-name="y" unicode="\" horiz-adv-x="569" 
d="M489 1498h-200l118 -1517h200z" />
    <glyph glyph-name="z" unicode="]" horiz-adv-x="569" 
d="M363 1380h241l-318 -1436h-241l-22 -99h438l362 1633h-439z" />
    <glyph glyph-name="braceleft" unicode="^" horiz-adv-x="1228" 
d="M470 618l416 618v0l141 -618h223l-198 860h-221l-580 -860h219z" />
    <glyph glyph-name="bar" unicode="_" horiz-adv-x="1023" 
d="M967 -255l22 102h-1022l-23 -102h1023z" />
    <glyph glyph-name="braceright" unicode="`" horiz-adv-x="454" 
d="M475 1232h170l-96 295h-276z" />
    <glyph glyph-name="asciitilde" unicode="a" 
d="M487 778q18 71 56 114q36 41 110 41q112 -2 81 -141l-14 -65q-527 -162 -600 -500q-24 -106 20 -176q42 -68 158 -70q82 0 152 27q65 25 140 78q-2 -39 -7 -86h219q-1 59 12 117l156 706q62 299 -267 299q-336 -2 -445 -344h229zM683 559l-64 -289q-38 -41 -81 -69
q-46 -33 -96 -33q-106 -2 -84 100q14 72 84 139q70 66 241 152v0z" />
    <glyph glyph-name="Adieresis" unicode="b" 
d="M328 0l25 115h4q40 -70 88 -103q46 -31 128 -31q229 2 301 306l117 528q63 305 -165 307q-72 0 -128 -29q-58 -31 -135 -86v0l104 471h-229l-327 -1478h217zM534 876q40 25 76 41q35 16 67 16q47 0 73 -32q20 -37 -1 -146l-91 -409q-25 -104 -63 -143q-40 -37 -87 -35
q-65 2 -118 57z" />
    <glyph glyph-name="Aring" unicode="c" 
d="M971 725q40 182 -18 288q-60 107 -250 109q-195 -2 -299 -113q-109 -112 -148 -297l-72 -323q-42 -184 17 -295q55 -111 249 -113q195 2 304 113q102 111 143 295l6 29h-229l-16 -70q-42 -182 -166 -180q-128 -2 -87 180l89 405q41 182 167 180q125 2 87 -180l-6 -28h229
z" />
    <glyph glyph-name="Ccedilla" unicode="d" 
d="M798 0l327 1478h-229l-104 -471v0q-51 55 -94 86q-44 29 -118 29q-230 -2 -301 -307l-117 -528q-64 -304 165 -306q84 0 147 31q60 33 129 103h4l-26 -115h217zM619 225q-38 -24 -73 -41q-36 -16 -71 -16q-47 -2 -70 35q-24 39 -1 143l91 409q24 109 65 146q38 32 85 32
q65 -2 118 -57z" />
    <glyph glyph-name="Eacute" unicode="e" 
d="M482 696l12 57q41 182 167 180q125 2 87 -180l-13 -57h-253zM968 712q41 185 -12 297q-59 111 -253 113q-195 -2 -299 -113q-109 -112 -148 -297l-72 -323q-42 -184 17 -295q55 -111 249 -113q191 2 299 109q105 104 144 283h-229l-6 -25q-42 -182 -166 -180
q-128 -2 -87 180l35 160h483z" />
    <glyph glyph-name="Ntilde" unicode="f" horiz-adv-x="569" 
d="M156 0h229l202 913h131l42 188h-131l30 135q14 76 92 74h65l42 188h-115q-253 2 -313 -260l-31 -137h-135l-41 -188h135z" />
    <glyph glyph-name="Odieresis" unicode="g" 
d="M1120 1122q-67 0 -110 -25q-46 -26 -104 -94v0q-80 121 -228 119q-190 2 -294 -88q-104 -92 -152 -318q-43 -186 -27 -262q16 -77 87 -133q-54 -24 -108 -71q-55 -47 -70 -107q-12 -51 11 -86q21 -34 62 -53l-1 -4q-62 -11 -115 -58q-58 -47 -71 -113q-19 -86 68 -129
q84 -47 256 -47q223 0 362 61q134 62 167 201q16 74 3 122q-15 45 -52 71q-35 27 -85 41q-51 13 -106 15q-113 6 -199 12q-90 4 -80 55q11 41 56 51h74q175 -2 283 97q108 98 163 346q17 77 14 174q56 34 118 34q18 0 36 -2zM432 -183q-113 0 -149 20q-39 19 -27 62
q7 43 55 63q45 19 157 19q115 0 152 -19q34 -20 25 -63q-10 -43 -53 -62q-45 -20 -160 -20v0zM510 471q-56 -2 -74 47q-20 49 10 184q30 137 72 186q39 47 94 45q66 2 82 -45q12 -49 -19 -186q-30 -135 -63 -184q-37 -49 -102 -47v0z" />
    <glyph glyph-name="Udieresis" unicode="h" 
d="M340 0l191 864q46 33 87 51t76 18q80 0 64 -79l-189 -854h229l197 890q47 228 -141 232q-94 0 -156 -33q-65 -35 -137 -90v0l106 479h-229l-327 -1478h229z" />
    <glyph glyph-name="aacute" unicode="i" horiz-adv-x="454" 
d="M342 0l244 1101h-230l-243 -1101h229zM623 1269l46 209h-229l-46 -209h229z" />
    <glyph glyph-name="agrave" unicode="j" horiz-adv-x="454" 
d="M-76 -347h87q55 0 108 14q50 15 94 47q90 64 127 224l257 1161h-229l-255 -1151q-16 -82 -105 -86h-38zM635 1269l46 209h-229l-46 -209h229z" />
    <glyph glyph-name="acircumflex" unicode="k" 
d="M1085 1101h-246l-337 -389h-5l170 766h-229l-327 -1478h229l85 385l144 162h4l64 -547h231l-99 753z" />
    <glyph glyph-name="adieresis" unicode="l" horiz-adv-x="454" 
d="M342 0l327 1478h-229l-327 -1478h229z" />
    <glyph glyph-name="atilde" unicode="m" horiz-adv-x="1365" 
d="M796 0l191 864q47 33 88 51q36 18 73 18q78 0 64 -79l-189 -854h230l197 890q50 228 -164 232q-59 0 -122 -25q-66 -29 -163 -106v0q-18 67 -51 100q-36 31 -120 31q-76 0 -137 -35q-63 -35 -146 -96v0l24 110h-217l-243 -1101h229l191 864q46 33 87 51t76 18
q76 0 62 -79l-189 -854h229z" />
    <glyph glyph-name="aring" unicode="n" 
d="M340 0l191 864q46 33 87 51t76 18q80 0 64 -79l-189 -854h229l197 890q47 228 -141 232q-94 0 -159 -35t-148 -96v0l24 110h-217l-243 -1101h229z" />
    <glyph glyph-name="ccedilla" unicode="o" 
d="M658 348q-42 -182 -166 -180q-128 -2 -87 180l89 405q41 182 167 180q125 2 87 -180zM184 389q-42 -184 17 -295q55 -111 249 -113q195 2 304 113q102 111 143 295l71 323q41 185 -12 297q-59 111 -253 113q-195 -2 -299 -113q-109 -112 -148 -297z" />
    <glyph glyph-name="eacute" unicode="p" 
d="M354 1101l-320 -1448h229l98 441v0q26 -28 53 -47q22 -20 45 -37q42 -29 114 -29q229 2 301 306l117 528q63 305 -165 307q-82 0 -142 -29q-62 -33 -134 -106h-4l25 114h-217zM534 876q40 25 76 41q35 16 67 16q47 0 73 -32q20 -37 -1 -146l-91 -409q-25 -104 -63 -143
q-40 -37 -87 -35q-65 2 -118 57z" />
    <glyph glyph-name="egrave" unicode="q" 
d="M825 1101l-25 -114h-4q-37 73 -83 106q-49 29 -133 29q-230 -2 -301 -307l-117 -528q-64 -304 165 -306q74 0 132 29q55 29 131 84v0l-98 -441h229l321 1448h-217zM619 225q-38 -24 -73 -41q-36 -16 -71 -16q-47 -2 -70 35q-24 39 -1 143l91 409q24 109 65 146
q38 32 85 32q65 -2 118 -57z" />
    <glyph glyph-name="ecircumflex" unicode="r" horiz-adv-x="682" 
d="M340 0l167 757q19 74 74 111q53 37 113 37q93 -2 142 -23l53 240h-47q-170 -2 -293 -150h-4l28 129h-219l-243 -1101h229z" />
    <glyph glyph-name="edieresis" unicode="s" horiz-adv-x="796" 
d="M704 796l202 33q5 131 -65 213q-69 78 -206 80q-131 -2 -234 -80q-107 -82 -138 -215q-22 -109 29 -184q24 -39 53 -72q30 -35 64 -65q71 -58 122 -113q25 -29 36 -59q9 -33 1 -70q-25 -96 -124 -96q-75 0 -96 53q-22 51 -16 121v0l-213 -55q-16 -300 282 -306
q143 2 248 74q104 74 139 221q25 123 -20 205q-46 82 -117 139q-34 31 -65 60q-31 26 -57 53q-25 28 -37 55q-15 27 -8 57q21 88 120 88q108 -2 100 -137v0z" />
    <glyph glyph-name="iacute" unicode="t" horiz-adv-x="569" 
d="M349 913l-151 -686q-53 -246 213 -246q78 0 117 12l44 195h-76q-78 0 -58 90l141 635h153l42 188h-154l66 297h-229l-66 -297h-127l-41 -188h126z" />
    <glyph glyph-name="igrave" unicode="u" 
d="M813 1101l-191 -864q-46 -28 -85 -47q-41 -22 -78 -22q-80 -2 -64 80l189 853h-230l-197 -890q-48 -226 141 -230q97 0 162 33q65 35 146 97v0l-25 -111h217l244 1101h-229z" />
    <glyph glyph-name="icircumflex" unicode="v" horiz-adv-x="796" 
d="M480 364h-4l22 737h-234l23 -1101h223l510 1101h-234z" />
    <glyph glyph-name="idieresis" unicode="w" horiz-adv-x="1138" 
d="M429 413h-4l52 688h-221l-31 -1101h184l304 696h4l-29 -696h184l498 1101h-221l-278 -688h-4l29 686h-170z" />
    <glyph glyph-name="ntilde" unicode="x" horiz-adv-x="796" 
d="M25 0h237l216 373h4l50 -373h238l-120 587l351 514h-237l-191 -307v0l-49 307h-237l112 -518z" />
    <glyph glyph-name="oacute" unicode="y" horiz-adv-x="796" 
d="M493 397h-4l9 704h-234l33 -935q5 -78 -8 -146q-19 -85 -60 -130q-45 -47 -131 -47h-55l-42 -188h96q129 0 218 57q87 60 154 207l551 1182h-232z" />
    <glyph glyph-name="ograve" unicode="z" horiz-adv-x="796" 
d="M683 913l-580 -725l-42 -188h674l42 188h-428l588 725l42 188h-645l-42 -188h391z" />
    <glyph glyph-name="ocircumflex" unicode="{" horiz-adv-x="569" 
d="M134 606q47 0 73 -39q25 -39 6 -125l-94 -422q-24 -97 13 -146q36 -49 157 -49h225l21 98h-167q-75 4 -51 102l87 397q15 67 9 112t-27 72q-18 29 -40 41q-26 12 -44 14l1 6q44 4 109 58q33 28 59 71t40 105l87 397q11 47 36 75q22 27 61 27h168l21 98h-225
q-121 0 -179 -49q-57 -49 -77 -147l-92 -414q-19 -86 -60 -125q-44 -38 -91 -38z" />
    <glyph glyph-name="odieresis" unicode="|" horiz-adv-x="454" 
d="M122 -19h201l336 1517h-200z" />
    <glyph glyph-name="otilde" unicode="}" horiz-adv-x="569" 
d="M728 716q-45 0 -70 39q-28 39 -9 125l94 422q21 98 -13 147q-36 49 -157 49h-225l-22 -98h168q75 -2 51 -102l-88 -397q-14 -66 -5 -109q6 -45 24 -74q19 -26 45 -38q21 -15 39 -19l-2 -6q-41 -2 -108 -55q-30 -27 -56 -70q-29 -45 -43 -108l-88 -397q-19 -98 -96 -102
h-167l-22 -98h225q120 0 178 49q56 49 78 146l91 414q20 86 65 125q41 39 86 39z" />
    <glyph glyph-name="uacute" unicode="~" horiz-adv-x="1228" 
d="M1165 686v0q-44 -49 -95 -88q-52 -41 -114 -43q-51 0 -96 20q-47 21 -98 45q-53 29 -105 47q-55 19 -108 19q-101 -2 -176 -54q-35 -22 -68 -51q-33 -26 -64 -55l51 -176v0q36 51 86 90q47 39 115 41q145 -4 222 -63q45 -29 92 -48q46 -20 102 -20q94 2 167 55
q41 25 74 54q34 26 66 51z" />
    <glyph glyph-name="uni00A0" unicode="&#xa0;" horiz-adv-x="454" 
 />
    <glyph glyph-name="fl" unicode="&#xa1;" horiz-adv-x="569" 
d="M516 667h-168l-276 -1043h258zM408 1101l-54 -241h242l53 241h-241z" />
    <glyph glyph-name="questiondown" unicode="&#xa2;" 
d="M390 303h-4q-4 29 3 65l89 406q21 94 74 139q50 41 116 41q18 0 32 -2zM986 745q56 246 -83 348l152 307h-151l-130 -262q-28 4 -65 4q-203 -2 -315 -112q-115 -113 -154 -297l-72 -324q-57 -241 74 -350l-147 -295h153l122 244q37 -8 86 -8q208 2 319 115
q108 110 147 294l6 29h-229l-16 -70q-44 -182 -185 -180q-37 0 -62 17l339 689q22 -40 4 -120l-6 -29h213z" />
    <glyph glyph-name="exclamdown" unicode="&#xa3;" 
d="M67 -19q65 6 127 33q61 27 120 64v0q86 -93 240 -97q270 6 340 306l27 120h-204q-20 -90 -52 -151q-35 -66 -101 -68q-80 2 -133 49q65 82 100 183q32 100 64 233h184l38 172h-202q5 98 3 182q-4 84 16 172q29 131 131 131q64 2 85 -43q15 -49 -8 -182h209
q92 415 -238 413q-341 -6 -413 -337q-14 -64 -15 -152q-3 -88 -2 -184h-129l-38 -172h158q-48 -217 -100 -321q-55 -103 -158 -133z" />
    <glyph glyph-name="breve" unicode="&#xa4;" 
d="M856 299l127 108l-76 94q97 103 129 238q27 135 -24 237l117 95l-78 108v0l-120 -98v0q-86 71 -221 73q-138 -2 -256 -73v0l-74 98v0l-127 -108l76 -95q-99 -102 -129 -237q-29 -135 24 -238l-117 -94l78 -108v0l118 98v0q86 -72 223 -74q136 2 254 74v0l76 -98v0z
M389 739q25 104 105 172q78 65 177 67q98 -2 149 -67q48 -68 27 -172q-24 -102 -103 -170q-81 -70 -179 -70t-146 70q-51 68 -30 170v0z" />
    <glyph glyph-name="quotedblleft" unicode="&#xa5;" 
d="M1068 958h-178l301 520h-205l-334 -612h-4l-71 612h-205l71 -520h-178l-38 -172h248l19 -164h-303l-38 -172h303l-100 -450h197l99 450h303l38 172h-303l92 164h248z" />
    <glyph glyph-name="glyph162" unicode="&#xa6;" horiz-adv-x="454" 
d="M462 606h-201l-139 -625h201zM659 1498h-200l-139 -626h201z" />
    <glyph glyph-name="logicalnot" unicode="&#xa7;" horiz-adv-x="1023" 
d="M954 1232l164 103q-31 69 -97 116q-68 45 -163 47q-148 -2 -237 -69q-89 -70 -113 -180q-30 -133 54 -215q-102 -11 -177 -70q-78 -59 -101 -164q-20 -98 36 -194q54 -98 133 -188q80 -90 136 -170q26 -39 41 -76q9 -39 2 -74q-12 -51 -50 -75q-38 -26 -92 -26
q-59 2 -89 38q-31 37 -45 84v0l-175 -117q61 -73 131 -118q71 -47 180 -47q121 2 214 78q88 76 117 196q17 75 3 126q-17 52 -57 95q110 6 182 73q71 68 93 168q21 105 -31 201q-54 92 -134 174q-77 84 -135 157q-27 37 -41 74q-15 35 -8 66q21 94 127 94q51 -2 83 -35
q29 -35 49 -72v0zM476 817q18 82 109 86q34 -2 82 -43q48 -45 91 -109q43 -63 72 -116q26 -58 21 -82q-8 -35 -40 -62q-33 -28 -74 -28q-29 0 -74 47q-43 45 -90 108q-43 64 -72 121q-30 55 -25 78v0z" />
    <glyph glyph-name="nonbreakingspace" unicode="&#xa8;" horiz-adv-x="454" 
d="M778 1257l49 221h-221l-49 -221h221zM282 1478l-49 -221h221l49 221h-221z" />
    <glyph glyph-name="guillemotleft" unicode="&#xa9;" horiz-adv-x="1638" 
d="M814 -19q320 2 591 207q274 201 355 551q74 352 -110 555q-181 202 -500 204q-317 -2 -587 -204q-276 -203 -358 -555q-74 -350 113 -551q179 -205 496 -207v0zM1560 739q-63 -266 -263 -430q-201 -168 -447 -170q-248 2 -372 170q-130 164 -73 430q62 268 264 432
q198 166 446 168q245 -2 372 -168q128 -164 73 -432v0zM1188 612q-27 -76 -90 -117q-63 -45 -151 -45q-108 2 -154 88q-49 84 -22 209q29 131 110 209q77 78 192 80q81 0 128 -39t46 -117h160q10 158 -73 238q-83 77 -226 77q-201 -2 -341 -127q-145 -124 -189 -325
q-43 -194 48 -319q88 -131 286 -133q137 0 260 86q121 84 181 235h-165z" />
    <glyph glyph-name="Ydieresis" unicode="&#xaa;" horiz-adv-x="544" 
d="M474 1292q14 81 97 84q70 2 52 -76l-8 -39q-329 -98 -374 -301q-14 -66 18 -106q27 -43 101 -43q99 -2 186 55q1 -23 -2 -43h144q-2 37 5 69l94 426q38 180 -177 180q-230 -2 -295 -206h159zM589 1144l-33 -149q-38 -60 -102 -62q-60 -2 -47 54q7 43 46 77q36 35 136 80
v0z" />
    <glyph glyph-name="Acircumflex" unicode="&#xab;" horiz-adv-x="1023" 
d="M449 551l310 315h-203l-305 -313l165 -318h197zM791 551l309 315h-202l-305 -313l165 -318h197z" />
    <glyph glyph-name="daggerdbl" unicode="&#xac;" horiz-adv-x="1228" 
d="M976 203h201l139 628h-1036l-44 -201h835z" />
    <glyph glyph-name="uni00AD" unicode="&#xad;" horiz-adv-x="682" 
d="M693 456l41 189h-501l-42 -189h502z" />
    <glyph glyph-name="Delta" unicode="&#xae;" horiz-adv-x="1638" 
d="M834 678h106l110 -363h187l-123 371q88 8 159 61q68 51 96 166q55 258 -274 252h-321l-188 -850h167zM912 1034h138q92 0 130 -23q34 -22 20 -84q-13 -57 -54 -88q-46 -30 -138 -30h-145zM814 -19q320 2 591 207q274 201 355 551q74 352 -110 555q-181 202 -500 204
q-317 -2 -587 -204q-276 -203 -358 -555q-74 -350 113 -551q179 -205 496 -207v0zM1560 739q-63 -266 -263 -430q-201 -168 -447 -170q-248 2 -372 170q-130 164 -73 430q62 268 264 432q198 166 446 168q245 -2 372 -168q128 -164 73 -432v0z" />
    <glyph glyph-name="Gbreve" unicode="&#xaf;" horiz-adv-x="454" 
d="M215 1304h602l29 131h-602z" />
    <glyph glyph-name="oslash" unicode="&#xb0;" horiz-adv-x="819" 
d="M637 1028q-74 0 -107 53q-38 51 -22 125q17 75 78 127q56 51 130 51q75 0 111 -51q34 -52 17 -127q-16 -74 -73 -125q-58 -53 -134 -53v0zM611 913q130 2 230 86q100 82 130 207q26 127 -38 208q-63 82 -192 84q-125 -2 -227 -84q-102 -81 -132 -208q-26 -125 40 -207
q65 -84 189 -86v0z" />
    <glyph glyph-name="oe" unicode="&#xb1;" horiz-adv-x="1228" 
d="M681 755h-418l-44 -200h418l-63 -281h201l62 281h418l44 200h-417l62 281h-201zM96 0h1036l44 201h-1035z" />
    <glyph glyph-name="uni00B2" unicode="&#xb2;" horiz-adv-x="544" 
d="M642 598l36 163h-258q211 193 289 314q42 63 63 118q20 56 32 109q18 82 -29 139q-47 55 -151 57q-119 -2 -202 -65q-90 -64 -113 -166l-9 -41h176l9 39q6 29 31 49q21 21 50 21q57 0 44 -58q-40 -180 -412 -514l-37 -165h481z" />
    <glyph glyph-name="uni00B3" unicode="&#xb3;" horiz-adv-x="544" 
d="M230 856l-11 -52q-45 -223 179 -219q260 0 314 262q20 90 12 140q-11 51 -72 81q65 33 96 80q28 47 45 123q21 92 -20 160q-43 65 -163 67q-108 0 -180 -57q-76 -55 -97 -149l-9 -41h172l8 34q5 25 23 41q16 17 40 17q53 -2 36 -82q-16 -72 -48 -94q-32 -27 -91 -25
l-34 -151q62 0 87 -17q21 -22 5 -94l-11 -51q-18 -82 -73 -80q-57 0 -41 64l9 43h-176z" />
    <glyph glyph-name="ellipsis" unicode="&#xb4;" horiz-adv-x="454" 
d="M858 1527h-276l-227 -295h170z" />
    <glyph glyph-name="quotedblright" unicode="&#xb5;" 
d="M813 1101l-191 -864q-46 -28 -85 -47q-41 -22 -78 -22q-80 -2 -64 80l189 853h-230l-320 -1448h229l72 328q80 10 139 42q58 32 132 88v0l-25 -111h217l244 1101h-229z" />
    <glyph glyph-name="florin" unicode="&#xb6;" horiz-adv-x="1023" 
d="M363 -163h168l334 1510h178l-334 -1510h168l334 1510h115l29 131h-590q-416 6 -511 -385q-36 -162 46 -264q79 -106 259 -108z" />
    <glyph glyph-name="scedilla" unicode="&#xb8;" horiz-adv-x="454" 
d="M-114 -435q22 -10 71 -29q47 -16 120 -18q103 2 189 57q88 53 111 152q15 77 -31 116q-49 37 -121 39q-20 0 -43 -4l111 122h-99l-180 -187l36 -37q54 20 110 12q27 -6 42 -20q12 -19 5 -52q-22 -79 -139 -83q-68 4 -124 34z" />
    <glyph glyph-name="uni00B9" unicode="&#xb9;" horiz-adv-x="544" 
d="M325 598h196l200 900h-101q-97 -69 -228 -116l-22 -99h107z" />
    <glyph glyph-name="fraction" unicode="&#xba;" horiz-adv-x="544" 
d="M566 1042q-22 -100 -85 -100q-64 0 -42 100l50 225q22 100 86 100q63 0 41 -100zM275 1058q-24 -108 14 -176q38 -71 163 -71q129 0 198 71q64 68 88 176l43 195q25 112 -10 178q-39 65 -167 67q-125 -2 -193 -67q-68 -66 -93 -178z" />
    <glyph glyph-name="Ecircumflex" unicode="&#xbb;" horiz-adv-x="1023" 
d="M515 235h196l306 318l-166 313h-203l170 -315zM173 235h196l306 318l-166 313h-203l170 -315z" />
    <glyph glyph-name="glyph160" unicode="&#xbc;" horiz-adv-x="1363" 
d="M997 360l187 272h4l-60 -272h-131zM1048 0h168l45 205h78l34 155h-77l116 526h-194l-379 -518l-36 -163h290zM333 -19l1176 1517h-187l-1175 -1517h186zM341 598h197l199 898h-101q-96 -65 -228 -114l-22 -99h107z" />
    <glyph glyph-name="glyph157" unicode="&#xbd;" horiz-adv-x="1363" 
d="M317 -19l1175 1517h-186l-1175 -1517h186zM337 598h197l199 900h-100q-98 -69 -229 -116l-22 -99h107zM1296 0l36 164h-258q210 192 288 313q43 63 63 119q21 55 33 108q18 82 -29 139q-47 56 -151 58q-119 -2 -203 -66q-90 -63 -112 -166l-9 -41h176l8 39q7 29 32 49
q21 21 49 21q58 0 45 -57q-40 -181 -413 -514l-36 -166h481z" />
    <glyph glyph-name="glyph165" unicode="&#xbe;" horiz-adv-x="1363" 
d="M997 360l187 272h4l-60 -272h-131zM1048 0h168l45 205h78l34 155h-77l116 526h-194l-379 -518l-36 -163h290zM372 -19l1176 1517h-187l-1175 -1517h186zM251 856l-12 -52q-45 -223 179 -219q260 0 314 262q20 90 12 140q-11 51 -71 81q64 33 95 80q29 47 46 123
q20 92 -20 160q-43 65 -163 67q-109 0 -181 -57q-76 -55 -97 -149l-9 -41h172l8 34q5 25 23 41q16 17 41 17q53 -2 35 -82q-16 -72 -47 -94q-33 -27 -92 -25l-33 -151q61 0 86 -17q22 -22 6 -94l-12 -51q-18 -82 -72 -80q-58 0 -42 64l10 43h-176z" />
    <glyph glyph-name="fi" unicode="&#xbf;" horiz-adv-x="796" 
d="M467 667l-24 -110q-32 -133 -85 -217q-58 -84 -123 -146q-60 -61 -115 -133q-57 -72 -82 -183q-24 -119 49 -194q67 -78 185 -80q285 0 431 270l-181 74v0q-24 -55 -67 -103q-48 -51 -112 -53q-37 2 -53 29q-21 26 -13 63q13 60 62 122q44 62 102 135q57 74 109 162
t75 192l39 172h-197zM545 1101l-54 -241h242l53 241h-241z" />
    <glyph glyph-name="Egrave" unicode="&#xc0;" 
d="M714 1183h4l-40 -634h-204zM388 328h278l-27 -328h245l55 1478h-315l-599 -1478h245zM512 1555h170l-96 295h-276z" />
    <glyph glyph-name="zcaron" unicode="&#xc1;" 
d="M714 1183h4l-40 -634h-204zM388 328h278l-27 -328h245l55 1478h-315l-599 -1478h245zM964 1850h-276l-227 -295h170z" />
    <glyph glyph-name="scaron" unicode="&#xc2;" 
d="M714 1183h4l-40 -634h-204zM388 328h278l-27 -328h245l55 1478h-315l-599 -1478h245zM292 1555h188l161 182v0l81 -182h188l-131 295h-225z" />
    <glyph glyph-name="Iacute" unicode="&#xc3;" 
d="M714 1183h4l-40 -634h-204zM388 328h278l-27 -328h245l55 1478h-315l-599 -1478h245zM876 1823q-15 -90 -106 -90q-30 0 -58 15q-27 14 -55 26q-52 35 -125 39q-100 -2 -164 -76q-63 -71 -100 -165h115q17 90 106 90q63 -2 114 -39q53 -39 124 -41q53 0 95 22
q42 23 72 58q63 71 97 161h-115z" />
    <glyph glyph-name="ucircumflex" unicode="&#xc4;" 
d="M714 1183h4l-40 -634h-204zM388 328h278l-27 -328h245l55 1478h-315l-599 -1478h245zM875 1580l49 221h-221l-49 -221h221zM379 1801l-49 -221h221l49 221h-221z" />
    <glyph glyph-name="udieresis" unicode="&#xc5;" 
d="M714 1183h4l-40 -634h-204zM388 328h278l-27 -328h245l55 1478h-315l-599 -1478h245zM416 1764q-19 -88 32 -145q43 -64 131 -64t163 64q70 57 92 145q17 88 -26 149q-49 58 -137 60q-88 -2 -158 -60q-77 -61 -97 -149v0zM519 1764q10 47 50 78q35 28 80 28q47 0 71 -28
q22 -31 12 -78q-10 -45 -45 -74q-38 -32 -85 -32q-45 0 -67 32q-26 29 -16 74v0z" />
    <glyph glyph-name="Atilde" unicode="&#xc6;" horiz-adv-x="1478" 
d="M584 569l382 725h4l-160 -725h-226zM25 0h257l184 348h295l-77 -348h716l49 221h-463l96 434h336l49 221h-336l85 381h434l49 221h-870z" />
    <glyph glyph-name="dagger" unicode="&#xc7;" horiz-adv-x="1023" 
d="M1106 985l24 108q38 172 -28 287q-69 116 -259 118q-199 -2 -316 -108q-121 -109 -156 -270l-169 -762q-35 -159 37 -266q70 -109 268 -111q191 2 310 111q115 107 151 266l37 170h-254l-39 -178q-16 -72 -49 -108q-37 -41 -107 -41q-139 0 -99 163l166 750
q32 163 171 163q52 0 77 -41q26 -43 7 -137l-26 -114h254zM314 -435q22 -10 71 -29q47 -16 120 -18q103 2 189 57q88 53 111 152q15 77 -31 116q-49 37 -121 39q-20 0 -43 -4l111 122h-99l-180 -187l36 -37q54 20 110 12q27 -6 42 -20q12 -19 5 -52q-22 -79 -139 -83
q-68 4 -124 34z" />
    <glyph glyph-name="Eth" unicode="&#xc8;" 
d="M831 0l49 221h-454l96 434h327l49 221h-327l84 381h426l49 221h-680l-327 -1478h708zM534 1555h170l-96 295h-276z" />
    <glyph glyph-name="degree" unicode="&#xc9;" 
d="M831 0l49 221h-454l96 434h327l49 221h-327l84 381h426l49 221h-680l-327 -1478h708zM986 1850h-276l-227 -295h170z" />
    <glyph glyph-name="Zcaron" unicode="&#xca;" 
d="M831 0l49 221h-454l96 434h327l49 221h-327l84 381h426l49 221h-680l-327 -1478h708zM315 1555h188l161 182v0l81 -182h188l-131 295h-225z" />
    <glyph glyph-name="brokenbar" unicode="&#xcb;" 
d="M831 0l49 221h-454l96 434h327l49 221h-327l84 381h426l49 221h-680l-327 -1478h708zM899 1580l49 221h-221l-49 -221h221zM403 1801l-49 -221h221l49 221h-221z" />
    <glyph glyph-name="Thorn" unicode="&#xcc;" horiz-adv-x="569" 
d="M411 0l328 1478h-254l-327 -1478h253zM334 1555h170l-96 295h-276z" />
    <glyph glyph-name="eth" unicode="&#xcd;" horiz-adv-x="569" 
d="M411 0l328 1478h-254l-327 -1478h253zM784 1850h-276l-227 -295h170z" />
    <glyph glyph-name="Yacute" unicode="&#xce;" horiz-adv-x="569" 
d="M411 0l328 1478h-254l-327 -1478h253zM113 1555h188l161 182v0l81 -182h188l-131 295h-225z" />
    <glyph glyph-name="yacute" unicode="&#xcf;" horiz-adv-x="569" 
d="M411 0l328 1478h-254l-327 -1478h253zM697 1580l49 221h-221l-49 -221h221zM201 1801l-49 -221h221l49 221h-221z" />
    <glyph glyph-name="glyph156" unicode="&#xd0;" horiz-adv-x="1023" 
d="M186 655h82l-145 -655h376q399 -1 500 446l130 586q97 448 -302 446h-377l-133 -602h-82zM722 876h-151l87 393h88q100 0 133 -43q29 -47 3 -164l-143 -646q-26 -115 -74 -160q-54 -47 -154 -47h-88l99 446h151z" />
    <glyph glyph-name="cent" unicode="&#xd1;" horiz-adv-x="1023" 
d="M352 0l204 923h5l119 -923h221l327 1478h-229l-188 -846h-4l-122 846h-235l-327 -1478h229zM931 1823q-15 -90 -106 -90q-30 0 -58 15q-27 14 -55 26q-52 35 -125 39q-100 -2 -164 -76q-63 -71 -100 -165h115q17 90 106 90q63 -2 114 -39q53 -39 124 -41q53 0 95 22
q42 23 72 58q63 71 97 161h-115z" />
    <glyph glyph-name="onesuperior" unicode="&#xd2;" horiz-adv-x="1023" 
d="M202 358q-35 -159 37 -266q70 -109 268 -111q201 2 320 111q118 107 153 266l168 762q36 161 -34 270q-70 106 -271 108q-199 -2 -316 -108q-121 -109 -156 -270zM623 1114q32 163 171 163q76 0 98 -39q19 -43 1 -124l-166 -750q-18 -82 -55 -122q-40 -41 -116 -41
q-139 0 -99 163zM612 1555h170l-96 295h-276z" />
    <glyph glyph-name="thorn" unicode="&#xd3;" horiz-adv-x="1023" 
d="M202 358q-35 -159 37 -266q70 -109 268 -111q201 2 320 111q118 107 153 266l168 762q36 161 -34 270q-70 106 -271 108q-199 -2 -316 -108q-121 -109 -156 -270zM623 1114q32 163 171 163q76 0 98 -39q19 -43 1 -124l-166 -750q-18 -82 -55 -122q-40 -41 -116 -41
q-139 0 -99 163zM1064 1850h-276l-227 -295h170z" />
    <glyph glyph-name="minus" unicode="&#xd4;" horiz-adv-x="1023" 
d="M202 358q-35 -159 37 -266q70 -109 268 -111q201 2 320 111q118 107 153 266l168 762q36 161 -34 270q-70 106 -271 108q-199 -2 -316 -108q-121 -109 -156 -270zM623 1114q32 163 171 163q76 0 98 -39q19 -43 1 -124l-166 -750q-18 -82 -55 -122q-40 -41 -116 -41
q-139 0 -99 163zM392 1555h188l161 182v0l81 -182h188l-131 295h-225z" />
    <glyph glyph-name="Icircumflex" unicode="&#xd5;" horiz-adv-x="1023" 
d="M202 358q-35 -159 37 -266q70 -109 268 -111q201 2 320 111q118 107 153 266l168 762q36 161 -34 270q-70 106 -271 108q-199 -2 -316 -108q-121 -109 -156 -270zM623 1114q32 163 171 163q76 0 98 -39q19 -43 1 -124l-166 -750q-18 -82 -55 -122q-40 -41 -116 -41
q-139 0 -99 163zM975 1823q-15 -90 -106 -90q-30 0 -58 15q-27 14 -55 26q-52 35 -125 39q-100 -2 -164 -76q-63 -71 -100 -165h115q17 90 106 90q63 -2 114 -39q53 -39 124 -41q53 0 95 22q42 23 72 58q63 71 97 161h-115z" />
    <glyph glyph-name="sterling" unicode="&#xd6;" horiz-adv-x="1023" 
d="M202 358q-35 -159 37 -266q70 -109 268 -111q201 2 320 111q118 107 153 266l168 762q36 161 -34 270q-70 106 -271 108q-199 -2 -316 -108q-121 -109 -156 -270zM623 1114q32 163 171 163q76 0 98 -39q19 -43 1 -124l-166 -750q-18 -82 -55 -122q-40 -41 -116 -41
q-139 0 -99 163zM975 1580l49 221h-221l-49 -221h221zM479 1801l-49 -221h221l49 221h-221z" />
    <glyph glyph-name="multiply" unicode="&#xd7;" horiz-adv-x="1228" 
d="M1330 894l-110 142v0l-460 -377v0l-293 377v0l-173 -142l293 -376l-459 -375l109 -143v0l460 377v0l294 -377v0l173 143l-292 375z" />
    <glyph glyph-name="Otilde" unicode="&#xd8;" horiz-adv-x="1023" 
d="M497 526h-4l130 588q32 163 171 163q58 0 84 -20q26 -23 24 -66zM835 868h4l-112 -504q-18 -82 -55 -122q-40 -41 -116 -41q-84 0 -98 47zM331 14q70 -33 176 -33q201 2 320 111q118 107 153 266l168 762q28 122 -7 215l189 311h-165l-122 -197v0q-75 49 -200 49
q-199 -2 -316 -108q-121 -109 -156 -270l-169 -762q-32 -143 22 -243l-221 -360h168z" />
    <glyph glyph-name="onehalf" unicode="&#xd9;" horiz-adv-x="1023" 
d="M205 373q-80 -388 302 -392q384 4 476 392l245 1105h-254l-247 -1116q-36 -161 -171 -161q-137 0 -99 161l247 1116h-254zM570 1555h170l-96 295h-276z" />
    <glyph glyph-name="twosuperior" unicode="&#xda;" horiz-adv-x="1023" 
d="M205 373q-80 -388 302 -392q384 4 476 392l245 1105h-254l-247 -1116q-36 -161 -171 -161q-137 0 -99 161l247 1116h-254zM1022 1850h-276l-227 -295h170z" />
    <glyph glyph-name="threesuperior" unicode="&#xdb;" horiz-adv-x="1023" 
d="M205 373q-80 -388 302 -392q384 4 476 392l245 1105h-254l-247 -1116q-36 -161 -171 -161q-137 0 -99 161l247 1116h-254zM350 1555h188l161 182v0l81 -182h188l-131 295h-225z" />
    <glyph glyph-name="section" unicode="&#xdc;" horiz-adv-x="1023" 
d="M205 373q-80 -388 302 -392q384 4 476 392l245 1105h-254l-247 -1116q-36 -161 -171 -161q-137 0 -99 161l247 1116h-254zM933 1580l49 221h-221l-49 -221h221zM437 1801l-49 -221h221l49 221h-221z" />
    <glyph glyph-name="glyph202" unicode="&#xdd;" 
d="M717 614l499 864h-258l-295 -563h-4l-53 563h-258l115 -864l-135 -614h253zM1271 1850h-276l-227 -295h170z" />
    <glyph glyph-name="glyph159" unicode="&#xde;" horiz-adv-x="1023" 
d="M704 1478h-254l-327 -1478h254l70 319h111q458 -10 555 436q100 444 -362 436h-111zM594 983h98q125 0 162 -48q34 -49 5 -180q-28 -129 -84 -178q-59 -51 -183 -49h-98z" />
    <glyph glyph-name="approxequal" unicode="&#xdf;" 
d="M340 0l254 1150q32 154 142 152q56 0 76 -29q17 -33 2 -102l-32 -143q-17 -80 -40 -109q-27 -31 -89 -39l-41 -188q125 2 91 -160l-46 -207q-28 -137 -110 -137q-30 0 -54 6l-43 -194h135q115 -1 196 88q82 92 134 330q39 176 15 270q-25 92 -116 121v4q158 26 211 274
q40 174 -6 289q-51 112 -253 114q-321 0 -411 -385l-244 -1105h229z" />
    <glyph glyph-name="paragraph" unicode="&#xe0;" 
d="M487 778q18 71 56 114q36 41 110 41q112 -2 81 -141l-14 -65q-527 -162 -600 -500q-24 -106 20 -176q42 -68 158 -70q82 0 152 27q65 25 140 78q-2 -39 -7 -86h219q-1 59 12 117l156 706q62 299 -267 299q-336 -2 -445 -344h229zM683 559l-64 -289q-38 -41 -81 -69
q-46 -33 -96 -33q-106 -2 -84 100q14 72 84 139q70 66 241 152v0zM393 1232h170l-96 295h-276z" />
    <glyph glyph-name="bullet" unicode="&#xe1;" 
d="M487 778q18 71 56 114q36 41 110 41q112 -2 81 -141l-14 -65q-527 -162 -600 -500q-24 -106 20 -176q42 -68 158 -70q82 0 152 27q65 25 140 78q-2 -39 -7 -86h219q-1 59 12 117l156 706q62 299 -267 299q-336 -2 -445 -344h229zM683 559l-64 -289q-38 -41 -81 -69
q-46 -33 -96 -33q-106 -2 -84 100q14 72 84 139q70 66 241 152v0zM845 1527h-276l-227 -295h170z" />
    <glyph glyph-name="germandbls" unicode="&#xe2;" 
d="M487 778q18 71 56 114q36 41 110 41q112 -2 81 -141l-14 -65q-527 -162 -600 -500q-24 -106 20 -176q42 -68 158 -70q82 0 152 27q65 25 140 78q-2 -39 -7 -86h219q-1 59 12 117l156 706q62 299 -267 299q-336 -2 -445 -344h229zM683 559l-64 -289q-38 -41 -81 -69
q-46 -33 -96 -33q-106 -2 -84 100q14 72 84 139q70 66 241 152v0zM175 1232h188l161 182v0l81 -182h188l-131 295h-225z" />
    <glyph glyph-name="copyright" unicode="&#xe3;" 
d="M487 778q18 71 56 114q36 41 110 41q112 -2 81 -141l-14 -65q-527 -162 -600 -500q-24 -106 20 -176q42 -68 158 -70q82 0 152 27q65 25 140 78q-2 -39 -7 -86h219q-1 59 12 117l156 706q62 299 -267 299q-336 -2 -445 -344h229zM683 559l-64 -289q-38 -41 -81 -69
q-46 -33 -96 -33q-106 -2 -84 100q14 72 84 139q70 66 241 152v0zM756 1500q-15 -90 -106 -90q-30 0 -58 15q-27 14 -55 26q-52 35 -125 39q-100 -2 -164 -76q-63 -71 -100 -165h115q17 90 106 90q63 -2 114 -39q53 -39 124 -41q53 0 95 22q42 23 72 58q63 71 97 161h-115z
" />
    <glyph glyph-name="registered" unicode="&#xe4;" 
d="M487 778q18 71 56 114q36 41 110 41q112 -2 81 -141l-14 -65q-527 -162 -600 -500q-24 -106 20 -176q42 -68 158 -70q82 0 152 27q65 25 140 78q-2 -39 -7 -86h219q-1 59 12 117l156 706q62 299 -267 299q-336 -2 -445 -344h229zM683 559l-64 -289q-38 -41 -81 -69
q-46 -33 -96 -33q-106 -2 -84 100q14 72 84 139q70 66 241 152v0zM758 1257l49 221h-221l-49 -221h221zM262 1478l-49 -221h221l49 221h-221z" />
    <glyph glyph-name="trademark" unicode="&#xe5;" 
d="M487 778q18 71 56 114q36 41 110 41q112 -2 81 -141l-14 -65q-527 -162 -600 -500q-24 -106 20 -176q42 -68 158 -70q82 0 152 27q65 25 140 78q-2 -39 -7 -86h219q-1 59 12 117l156 706q62 299 -267 299q-336 -2 -445 -344h229zM683 559l-64 -289q-38 -41 -81 -69
q-46 -33 -96 -33q-106 -2 -84 100q14 72 84 139q70 66 241 152v0zM296 1441q-19 -88 32 -145q43 -64 131 -64t163 64q70 57 92 145q17 88 -26 149q-49 58 -137 60q-88 -2 -158 -60q-77 -61 -97 -149v0zM399 1441q10 47 50 78q35 28 80 28q47 0 71 -28q22 -31 12 -78
q-10 -45 -45 -74q-38 -32 -85 -32q-45 0 -67 32q-26 29 -16 74v0z" />
    <glyph glyph-name="guilsinglleft" unicode="&#xe6;" horiz-adv-x="1365" 
d="M680 559l-63 -289q-36 -41 -79 -69q-46 -33 -96 -33q-106 -2 -84 100q14 72 84 139q70 66 238 152v0zM940 696l13 57q40 182 164 180q126 2 88 -180l-13 -57h-252zM1379 508l46 204q40 185 -10 297q-56 111 -237 113q-158 0 -267 -103v0q-61 101 -241 103
q-137 0 -248 -86q-114 -88 -164 -258h229q18 71 56 114q36 41 110 41q110 -2 79 -141l-14 -65q-265 -88 -410 -205q-149 -117 -188 -295q-24 -106 24 -176q46 -68 179 -70q51 0 128 23q79 25 209 119v0q45 -138 246 -142q191 2 299 109q105 104 144 283h-229l-5 -25
q-43 -182 -167 -180q-125 -2 -85 180l35 160h481z" />
    <glyph glyph-name="acute" unicode="&#xe7;" 
d="M971 725q40 182 -18 288q-60 107 -250 109q-195 -2 -299 -113q-109 -112 -148 -297l-72 -323q-42 -184 17 -295q55 -111 249 -113q195 2 304 113q102 111 143 295l6 29h-229l-16 -70q-42 -182 -166 -180q-128 -2 -87 180l89 405q41 182 167 180q125 2 87 -180l-6 -28h229
zM257 -435q22 -10 71 -29q47 -16 120 -18q103 2 189 57q88 53 111 152q15 77 -31 116q-49 37 -121 39q-20 0 -43 -4l111 122h-99l-180 -187l36 -37q54 20 110 12q27 -6 42 -20q12 -19 5 -52q-22 -79 -139 -83q-68 4 -124 34z" />
    <glyph glyph-name="notequal" unicode="&#xe8;" 
d="M482 696l12 57q41 182 167 180q125 2 87 -180l-13 -57h-253zM968 712q41 185 -12 297q-59 111 -253 113q-195 -2 -299 -113q-109 -112 -148 -297l-72 -323q-42 -184 17 -295q55 -111 249 -113q191 2 299 109q105 104 144 283h-229l-6 -25q-42 -182 -166 -180
q-128 -2 -87 180l35 160h483zM409 1232h170l-96 295h-276z" />
    <glyph glyph-name="dieresis" unicode="&#xe9;" 
d="M482 696l12 57q41 182 167 180q125 2 87 -180l-13 -57h-253zM968 712q41 185 -12 297q-59 111 -253 113q-195 -2 -299 -113q-109 -112 -148 -297l-72 -323q-42 -184 17 -295q55 -111 249 -113q191 2 299 109q105 104 144 283h-229l-6 -25q-42 -182 -166 -180
q-128 -2 -87 180l35 160h483zM863 1527h-276l-227 -295h170z" />
    <glyph glyph-name="AE" unicode="&#xea;" 
d="M482 696l12 57q41 182 167 180q125 2 87 -180l-13 -57h-253zM968 712q41 185 -12 297q-59 111 -253 113q-195 -2 -299 -113q-109 -112 -148 -297l-72 -323q-42 -184 17 -295q55 -111 249 -113q191 2 299 109q105 104 144 283h-229l-6 -25q-42 -182 -166 -180
q-128 -2 -87 180l35 160h483zM190 1232h188l161 182v0l81 -182h188l-131 295h-225z" />
    <glyph glyph-name="Oslash" unicode="&#xeb;" 
d="M482 696l12 57q41 182 167 180q125 2 87 -180l-13 -57h-253zM968 712q41 185 -12 297q-59 111 -253 113q-195 -2 -299 -113q-109 -112 -148 -297l-72 -323q-42 -184 17 -295q55 -111 249 -113q191 2 299 109q105 104 144 283h-229l-6 -25q-42 -182 -166 -180
q-128 -2 -87 180l35 160h483zM774 1257l49 221h-221l-49 -221h221zM278 1478l-49 -221h221l49 221h-221z" />
    <glyph glyph-name="plusminus" unicode="&#xec;" horiz-adv-x="454" 
d="M342 0l244 1101h-230l-243 -1101h229zM133 1232h170l-96 295h-276z" />
    <glyph glyph-name="infinity" unicode="&#xed;" horiz-adv-x="454" 
d="M342 0l244 1101h-230l-243 -1101h229zM585 1527h-276l-227 -295h170z" />
    <glyph glyph-name="lessequal" unicode="&#xee;" horiz-adv-x="454" 
d="M342 0l244 1101h-230l-243 -1101h229zM-86 1232h188l161 182v0l81 -182h188l-131 295h-225z" />
    <glyph glyph-name="greaterequal" unicode="&#xef;" horiz-adv-x="454" 
d="M342 0l244 1101h-230l-243 -1101h229zM496 1257l49 221h-221l-49 -221h221zM0 1478l-49 -221h221l49 221h-221z" />
    <glyph glyph-name="glyph169" unicode="&#xf0;" 
d="M655 334q-39 -168 -163 -166q-128 -2 -91 166l74 331q37 168 163 166q126 2 91 -166zM1115 1470v0l-242 -86v0q-30 57 -75 94l-187 -49q44 -51 71 -113l-206 -71l23 -148v0l233 82v0q13 -33 22 -74q7 -43 1 -90q-40 4 -75 4q-195 -2 -297 -102q-106 -102 -142 -274
l-64 -287q-39 -168 22 -270q57 -103 251 -105q195 2 302 105q100 102 137 270l64 287q76 360 -19 608l211 75z" />
    <glyph glyph-name="yen" unicode="&#xf1;" 
d="M340 0l191 864q46 33 87 51t76 18q80 0 64 -79l-189 -854h229l197 890q47 228 -141 232q-94 0 -159 -35t-148 -96v0l24 110h-217l-243 -1101h229zM729 1500q-15 -90 -106 -90q-30 0 -58 15q-27 14 -55 26q-52 35 -125 39q-100 -2 -164 -76q-63 -71 -100 -165h115
q17 90 106 90q63 -2 114 -39q53 -39 124 -41q53 0 95 22q42 23 72 58q63 71 97 161h-115z" />
    <glyph glyph-name="partialdiff" unicode="&#xf2;" 
d="M658 348q-42 -182 -166 -180q-128 -2 -87 180l89 405q41 182 167 180q125 2 87 -180zM184 389q-42 -184 17 -295q55 -111 249 -113q195 2 304 113q102 111 143 295l71 323q41 185 -12 297q-59 111 -253 113q-195 -2 -299 -113q-109 -112 -148 -297zM409 1232h170l-96 295
h-276z" />
    <glyph glyph-name="mu" unicode="&#xf3;" 
d="M658 348q-42 -182 -166 -180q-128 -2 -87 180l89 405q41 182 167 180q125 2 87 -180zM184 389q-42 -184 17 -295q55 -111 249 -113q195 2 304 113q102 111 143 295l71 323q41 185 -12 297q-59 111 -253 113q-195 -2 -299 -113q-109 -112 -148 -297zM863 1527h-276
l-227 -295h170z" />
    <glyph glyph-name="summation" unicode="&#xf4;" 
d="M658 348q-42 -182 -166 -180q-128 -2 -87 180l89 405q41 182 167 180q125 2 87 -180zM184 389q-42 -184 17 -295q55 -111 249 -113q195 2 304 113q102 111 143 295l71 323q41 185 -12 297q-59 111 -253 113q-195 -2 -299 -113q-109 -112 -148 -297zM190 1232h188l161 182
v0l81 -182h188l-131 295h-225z" />
    <glyph glyph-name="pi" unicode="&#xf5;" 
d="M658 348q-42 -182 -166 -180q-128 -2 -87 180l89 405q41 182 167 180q125 2 87 -180zM184 389q-42 -184 17 -295q55 -111 249 -113q195 2 304 113q102 111 143 295l71 323q41 185 -12 297q-59 111 -253 113q-195 -2 -299 -113q-109 -112 -148 -297zM774 1500
q-15 -90 -106 -90q-30 0 -58 15q-27 14 -55 26q-52 35 -125 39q-100 -2 -164 -76q-63 -71 -100 -165h115q17 90 106 90q63 -2 114 -39q53 -39 124 -41q53 0 95 22q42 23 72 58q63 71 97 161h-115z" />
    <glyph glyph-name="product" unicode="&#xf6;" 
d="M658 348q-42 -182 -166 -180q-128 -2 -87 180l89 405q41 182 167 180q125 2 87 -180zM184 389q-42 -184 17 -295q55 -111 249 -113q195 2 304 113q102 111 143 295l71 323q41 185 -12 297q-59 111 -253 113q-195 -2 -299 -113q-109 -112 -148 -297zM774 1257l49 221h-221
l-49 -221h221zM278 1478l-49 -221h221l49 221h-221z" />
    <glyph glyph-name="Ugrave" unicode="&#xf7;" horiz-adv-x="1228" 
d="M1224 418l45 200h-1036l-44 -200h1035zM659 942q-16 -70 24 -115q34 -49 103 -49q70 0 128 49q55 45 72 115q14 69 -21 116q-37 45 -106 47q-70 -2 -125 -47q-60 -47 -75 -116v0zM471 94q-15 -69 24 -113q35 -48 104 -50q70 2 127 50q55 44 73 113q13 70 -22 117
q-37 45 -106 47q-70 -2 -125 -47q-59 -47 -75 -117v0z" />
    <glyph glyph-name="guilsinglright" unicode="&#xf8;" 
d="M737 723h4l-83 -375q-42 -182 -166 -180q-45 0 -73 24zM314 2q54 -21 136 -21q195 2 304 113q102 111 143 295l71 323q47 203 -28 318l176 292h-140l-133 -223q-58 23 -140 23q-195 -2 -299 -113q-109 -112 -148 -297l-72 -323q-47 -207 36 -321l-188 -313h135zM410 354
h-4l88 399q41 182 167 180q51 0 76 -28z" />
    <glyph glyph-name="ordfeminine" unicode="&#xf9;" 
d="M813 1101l-191 -864q-46 -28 -85 -47q-41 -22 -78 -22q-80 -2 -64 80l189 853h-230l-197 -890q-48 -226 141 -230q97 0 162 33q65 35 146 97v0l-25 -111h217l244 1101h-229zM363 1232h170l-96 295h-276z" />
    <glyph glyph-name="integral" unicode="&#xfa;" 
d="M813 1101l-191 -864q-46 -28 -85 -47q-41 -22 -78 -22q-80 -2 -64 80l189 853h-230l-197 -890q-48 -226 141 -230q97 0 162 33q65 35 146 97v0l-25 -111h217l244 1101h-229zM818 1527h-276l-227 -295h170z" />
    <glyph glyph-name="ordmasculine" unicode="&#xfb;" 
d="M813 1101l-191 -864q-46 -28 -85 -47q-41 -22 -78 -22q-80 -2 -64 80l189 853h-230l-197 -890q-48 -226 141 -230q97 0 162 33q65 35 146 97v0l-25 -111h217l244 1101h-229zM145 1232h188l161 182v0l81 -182h188l-131 295h-225z" />
    <glyph glyph-name="Omega" unicode="&#xfc;" 
d="M813 1101l-191 -864q-46 -28 -85 -47q-41 -22 -78 -22q-80 -2 -64 80l189 853h-230l-197 -890q-48 -226 141 -230q97 0 162 33q65 35 146 97v0l-25 -111h217l244 1101h-229zM729 1257l49 221h-221l-49 -221h221zM233 1478l-49 -221h221l49 221h-221z" />
    <glyph glyph-name="glyph174" unicode="&#xfd;" horiz-adv-x="796" 
d="M493 397h-4l9 704h-234l33 -935q5 -78 -8 -146q-19 -85 -60 -130q-45 -47 -131 -47h-55l-42 -188h96q129 0 218 57q87 60 154 207l551 1182h-232zM744 1527h-276l-227 -295h170z" />
    <glyph glyph-name="glyph164" unicode="&#xfe;" 
d="M438 1478l-404 -1825h229l98 441v0q26 -28 53 -47q22 -20 45 -37q42 -29 114 -29q229 2 301 306l117 528q63 305 -165 307q-84 0 -140 -29q-60 -31 -121 -96h-5l107 481h-229zM534 876q40 25 76 41q35 16 67 16q47 0 73 -32q20 -37 -1 -146l-91 -409q-25 -104 -63 -143
q-40 -37 -87 -35q-65 2 -118 57z" />
    <glyph glyph-name="circumflex" unicode="&#xff;" horiz-adv-x="796" 
d="M493 397h-4l9 704h-234l33 -935q5 -78 -8 -146q-19 -85 -60 -130q-45 -47 -131 -47h-55l-42 -188h96q129 0 218 57q87 60 154 207l551 1182h-232zM655 1257l49 221h-221l-49 -221h221zM159 1478l-49 -221h221l49 221h-221z" />
    <glyph glyph-name="onequarter" unicode="&#x131;" horiz-adv-x="454" 
d="M342 0l244 1101h-230l-243 -1101h229z" />
    <glyph glyph-name="glyph142" unicode="&#x141;" horiz-adv-x="796" 
d="M518 694l259 96l37 168v0l-259 -96v0l137 616h-254l-159 -717l-120 -45l-38 -167v0l121 45v0l-131 -594h652l49 221h-399z" />
    <glyph glyph-name="glyph148" unicode="&#x142;" horiz-adv-x="454" 
d="M519 798l159 74l34 151v0l-160 -73v0l117 528h-229l-143 -645l-160 -74l-33 -151v0l159 74v0l-150 -682h229z" />
    <glyph glyph-name="Idieresis" unicode="&#x152;" horiz-adv-x="1478" 
d="M759 379q-18 -82 -64 -117q-45 -37 -111 -37q-82 0 -106 55q-28 54 -8 140l142 644q20 88 70 142q49 53 131 53q65 0 95 -35q30 -37 12 -119zM1400 0l49 221h-471l96 434h344l49 221h-344l85 381h442l49 221h-819q-429 -4 -530 -450l-127 -578q-97 -446 330 -450h847z
" />
    <glyph glyph-name="Igrave" unicode="&#x153;" horiz-adv-x="1365" 
d="M646 348q-42 -182 -154 -180q-128 -2 -87 180l89 405q41 182 167 180q53 0 75 -41q21 -45 0 -139zM952 696l13 57q21 94 57 139q36 41 95 41q126 2 88 -180l-13 -57h-240zM1379 508l46 204q40 185 -10 297q-54 111 -231 113q-170 0 -271 -125v0q-30 125 -235 125
q-176 -2 -279 -113q-102 -112 -143 -297l-72 -323q-40 -184 13 -295t228 -113q103 0 174 33q69 35 112 92v0q36 -123 220 -125q174 2 276 109q101 104 142 283h-229l-5 -25q-43 -182 -167 -180q-115 -2 -73 180l36 160h468z" />
    <glyph glyph-name="glyph207" unicode="&#x160;" 
d="M1079 1140q19 160 -49 258q-66 98 -223 100q-390 -4 -475 -368q-32 -156 25 -258q54 -104 135 -186q84 -80 144 -160q58 -82 36 -190q-14 -64 -61 -99q-49 -36 -116 -36q-129 0 -102 223v0l-250 -35q-27 -170 45 -287q70 -119 246 -121q180 2 312 99q130 96 173 278
q31 150 -22 256q-54 107 -138 188q-80 84 -140 162q-63 78 -45 168q32 143 159 145q45 0 81 -32q31 -37 18 -131zM969 1850h-188l-161 -182v0l-81 182h-188l131 -295h226z" />
    <glyph glyph-name="glyph179" unicode="&#x161;" horiz-adv-x="796" 
d="M704 796l202 33q5 131 -65 213q-69 78 -206 80q-131 -2 -234 -80q-107 -82 -138 -215q-22 -109 29 -184q24 -39 53 -72q30 -35 64 -65q71 -58 122 -113q25 -29 36 -59q9 -33 1 -70q-25 -96 -124 -96q-75 0 -96 53q-22 51 -16 121v0l-213 -55q-16 -300 282 -306
q143 2 248 74q104 74 139 221q25 123 -20 205q-46 82 -117 139q-34 31 -65 60q-31 26 -57 53q-25 28 -37 55q-15 27 -8 57q21 88 120 88q108 -2 100 -137v0zM757 1527h-188l-161 -182v0l-81 182h-188l131 -295h226z" />
    <glyph glyph-name="tilde" unicode="&#x178;" 
d="M717 614l499 864h-258l-295 -563h-4l-53 563h-258l115 -864l-135 -614h253zM1182 1580l49 221h-221l-49 -221h221zM686 1801l-49 -221h221l49 221h-221z" />
    <glyph glyph-name="quotesinglbase" unicode="&#x192;" 
d="M-4 -337q35 -10 76 -10q236 2 379 287q140 279 278 801h217l38 172h-209q62 241 124 327q32 45 66 66q32 16 63 16q57 0 98 -26l43 192q-22 4 -46 8q-24 2 -48 2q-153 2 -286 -127q-136 -133 -231 -458h-204l-38 -172h190q-155 -561 -233 -739q-42 -93 -82 -128
q-42 -33 -97 -33q-33 0 -57 11z" />
    <glyph glyph-name="threequarters" unicode="&#x2c6;" horiz-adv-x="454" 
d="M191 1232h188l161 182v0l81 -182h188l-131 295h-225z" />
    <glyph glyph-name="Ccaron" unicode="&#x2c7;" horiz-adv-x="454" 
d="M874 1527h-188l-161 -182v0l-81 182h-188l131 -295h226z" />
    <glyph glyph-name="gbreve" unicode="&#x2d8;" horiz-adv-x="454" 
d="M749 1533q-53 -153 -216 -151q-164 -2 -149 151h-118q-18 -119 37 -203q54 -85 199 -88q150 3 241 88q90 84 124 203h-118z" />
    <glyph glyph-name="Idotaccent" unicode="&#x2d9;" horiz-adv-x="454" 
d="M444 1478l-49 -221h221l49 221h-221z" />
    <glyph glyph-name="Scedilla" unicode="&#x2da;" horiz-adv-x="454" 
d="M337 1441q-19 -88 32 -145q43 -64 131 -64t163 64q70 57 92 145q17 88 -26 149q-49 58 -137 60q-88 -2 -158 -60q-77 -61 -97 -149v0zM440 1441q10 47 50 78q35 28 80 28q47 0 71 -28q22 -31 12 -78q-10 -45 -45 -74q-38 -32 -85 -32q-45 0 -67 32q-26 29 -16 74v0z" />
    <glyph glyph-name="cacute" unicode="&#x2db;" horiz-adv-x="454" 
d="M507 43q-59 -8 -137 -27q-80 -17 -157 -52q-77 -33 -134 -86q-61 -55 -79 -137q-20 -92 28 -139q47 -49 131 -49q82 2 164 39q80 36 154 84l-23 73v0q-45 -26 -98 -53q-57 -27 -104 -29q-97 0 -79 97q11 51 51 94q36 41 84 71q49 31 101 54q52 21 92 35z" />
    <glyph glyph-name="glyph130" unicode="&#x2dc;" horiz-adv-x="454" 
d="M778 1500q-15 -90 -106 -90q-30 0 -58 15q-27 14 -55 26q-52 35 -125 39q-100 -2 -164 -76q-63 -71 -100 -165h115q17 90 106 90q63 -2 114 -39q53 -39 124 -41q53 0 95 22q42 23 72 58q63 71 97 161h-115z" />
    <glyph glyph-name="Oacute" unicode="&#x2013;" horiz-adv-x="1023" 
d="M1129 477l33 147h-1024l-32 -147h1023z" />
    <glyph glyph-name="Ocircumflex" unicode="&#x2014;" horiz-adv-x="2047" 
d="M2152 477l33 147h-2047l-32 -147h2046z" />
    <glyph glyph-name="Uacute" unicode="&#x2018;" horiz-adv-x="454" 
d="M328 1003h242l53 242h-92l157 253h-109l-197 -253z" />
    <glyph glyph-name="Ucircumflex" unicode="&#x2019;" horiz-adv-x="454" 
d="M675 1478h-241l-54 -242h92l-156 -253h108l198 253z" />
    <glyph glyph-name="Lslash" unicode="&#x201a;" horiz-adv-x="454" 
d="M401 242h-241l-54 -242h93l-157 -253h109l197 253z" />
    <glyph glyph-name="apple" unicode="&#x201c;" 
d="M365 1003h242l53 242h-92l157 253h-109l-197 -253zM744 1003h242l53 242h-92l156 253h-108l-198 -253z" />
    <glyph glyph-name="Ograve" unicode="&#x201d;" 
d="M1093 1478h-242l-53 -242h92l-157 -253h109l197 253zM714 1478h-242l-53 -242h92l-156 -253h108l198 253z" />
    <glyph glyph-name="lslash" unicode="&#x201e;" 
d="M819 242h-242l-53 -242h92l-156 -253h108l198 253zM440 242h-241l-54 -242h92l-156 -253h108l198 253z" />
    <glyph glyph-name="ae" unicode="&#x2020;" horiz-adv-x="1023" 
d="M1092 921l56 254v0l-352 -86v0l170 409h-245l-11 -409v0l-315 86v0l-56 -254v0l361 86v0l-169 -346q8 -215 -94 -824h77q168 609 271 824l-16 346v0l323 -86v0z" />
    <glyph glyph-name="ogonek" unicode="&#x2021;" horiz-adv-x="1023" 
d="M1092 921l56 254v0l-352 -86v0l170 409h-245l-11 -409v0l-315 86v0l-56 -254v0l361 86v0l-167 -340l16 -339v0l-322 85v0l-57 -253v0l353 86v0l-170 -409h245l11 409v0l315 -86v0l56 253v0l-361 -85v0l167 339l-17 340v0l323 -86v0z" />
    <glyph glyph-name="radical" unicode="&#x2022;" horiz-adv-x="1023" 
d="M305 739q-33 -158 51 -260q78 -109 235 -111q158 2 289 111q127 102 164 260q33 158 -49 262q-83 104 -240 106q-158 -2 -284 -106q-129 -104 -166 -262v0z" />
    <glyph glyph-name="Aacute" unicode="&#x2026;" horiz-adv-x="2047" 
d="M459 0l53 242h-233l-54 -242h234zM1140 0l54 242h-234l-53 -242h233zM1822 0l53 242h-233l-54 -242h234z" />
    <glyph glyph-name="Scaron" unicode="&#x2030;" horiz-adv-x="2047" 
d="M288 1171q-27 -129 44 -215q66 -90 195 -92q133 2 239 92q105 86 136 215q27 133 -40 219t-199 88q-130 -2 -235 -88q-109 -86 -140 -219v0zM452 1171q14 63 66 104q49 39 109 39q63 0 95 -39q30 -41 16 -104q-13 -60 -61 -100q-50 -43 -114 -43q-59 0 -91 43
q-34 40 -20 100v0zM748 307q-27 -129 44 -215q66 -90 195 -92q133 2 239 92q105 86 136 215q27 133 -40 219t-199 88q-130 -2 -235 -88q-109 -86 -140 -219v0zM911 307q14 63 66 104q50 39 109 39q64 0 96 -39q30 -41 16 -104q-13 -59 -61 -100q-51 -43 -114 -43
q-60 0 -91 43q-34 41 -21 100v0zM1472 307q-26 -129 45 -215q66 -90 194 -92q134 2 240 92q105 86 135 215q28 133 -39 219t-200 88q-129 -2 -234 -88q-109 -86 -141 -219v0zM1636 307q14 63 66 104q50 39 109 39q63 0 96 -39q29 -41 15 -104q-13 -59 -61 -100
q-50 -43 -114 -43q-59 0 -90 43q-34 41 -21 100v0zM192 -19h143l1178 1517h-144z" />
    <glyph glyph-name="dotaccent" unicode="&#x2039;" horiz-adv-x="682" 
d="M449 551l310 315h-203l-305 -313l165 -318h197z" />
    <glyph glyph-name="ring" unicode="&#x203a;" horiz-adv-x="682" 
d="M173 235h196l306 318l-166 313h-203l170 -315z" />
    <glyph glyph-name="guillemotright" unicode="&#x2122;" horiz-adv-x="2026" 
d="M1559 923l-88 555h-278l-187 -843h189l136 618h5l88 -618h141l362 618h4l-137 -618h189l186 843h-276l-334 -555v0zM1085 1478h-688l-34 -154h245l-152 -689h196l153 689h246z" />
    <glyph glyph-name="glyph168" unicode="&#x2212;" horiz-adv-x="1228" 
d="M1224 418l45 200h-1036l-44 -200h1035z" />
    <glyph glyph-name="macron" unicode="&#x2215;" horiz-adv-x="342" 
d="M-159 -19l1174 1517h-186l-1174 -1517h186z" />
    <glyph glyph-name="caron" unicode="&#x2219;" horiz-adv-x="454" 
d="M205 518q-13 -59 19 -96q28 -41 87 -41q60 0 108 41q47 37 60 96t-17 98t-90 39q-59 0 -105 -39q-49 -39 -62 -98v0z" />
    <glyph glyph-name="cedilla" unicode="&#xf001;" 
d="M127 0h229l202 913h131l42 188h-131l30 135q15 76 92 74h65l42 188h-115q-253 2 -313 -260l-30 -137h-135l-42 -188h135zM796 0l244 1101h-229l-244 -1101h229zM1077 1269l46 209h-229l-46 -209h229z" />
    <glyph glyph-name="hungarumlaut" unicode="&#xf002;" 
d="M127 0h229l202 913h131l42 188h-131l30 135q15 76 92 74h65l42 188h-115q-253 2 -313 -260l-30 -137h-135l-42 -188h135zM796 0l327 1478h-229l-327 -1478h229z" />
    <glyph glyph-name="two" horiz-adv-x="0" 
 />
    </font>
</defs>
</svg>
